HIERARCHY
ROOT Pelvis
{
	OFFSET 0.000000 0.000000 0.000000
	CHANNELS 6 Xposition Yposition Zposition Xrotation Yrotation Zrotation
	JOINT LeftUpLeg_virtual
	{
		OFFSET 0.000000 0.000000 0.000000
		CHANNELS 3 Xrotation Yrotation Zrotation
		JOINT LeftUpLeg
		{
			OFFSET 8.479700 -4.795502 -0.379100
			CHANNELS 3 Xrotation Yrotation Zrotation
			JOINT LeftLeg
			{
				OFFSET 0.024144 -32.555107 0.112900
				CHANNELS 3 Xrotation Yrotation Zrotation
				JOINT LeftFoot
				{
					OFFSET -0.024144 -32.638630 -3.012600
					CHANNELS 3 Xrotation Yrotation Zrotation
					JOINT LeftToeBase
					{
						OFFSET 0.970200 -13.225400 11.864200
						CHANNELS 3 Xrotation Yrotation Zrotation
						End Site
						{
							OFFSET 0 0 0
						}
					}
				}
			}
		}
	}
	JOINT RightUpLeg_virtual
	{
		OFFSET 0.000000 0.000000 0.000000
		CHANNELS 3 Xrotation Yrotation Zrotation
		JOINT RightUpLeg
		{
			OFFSET -8.479700 -4.795502 -0.379100
			CHANNELS 3 Xrotation Yrotation Zrotation
			JOINT RightLeg
			{
				OFFSET -0.023144 -32.555092 0.112900
				CHANNELS 3 Xrotation Yrotation Zrotation
				JOINT RightFoot
				{
					OFFSET 0.023144 -32.638641 -3.012700
					CHANNELS 3 Xrotation Yrotation Zrotation
					JOINT RightToeBase
					{
						OFFSET -0.970200 -13.225400 11.864200
						CHANNELS 3 Xrotation Yrotation Zrotation
						End Site
						{
							OFFSET 0 0 0
						}
					}
				}
			}
		}
	}
	JOINT Hips_virtual
	{
		OFFSET 0.000000 0.000000 0.000000
		CHANNELS 3 Xrotation Yrotation Zrotation
		JOINT Hips
		{
			OFFSET -0.000000 -0.000000 -0.000000
			CHANNELS 3 Xrotation Yrotation Zrotation
			JOINT Spine
			{
				OFFSET 0.000000 7.722000 1.166200
				CHANNELS 3 Xrotation Yrotation Zrotation
				JOINT Spine1
				{
					OFFSET 0.000000 12.024101 0.248800
					CHANNELS 3 Xrotation Yrotation Zrotation
					JOINT Spine2
					{
						OFFSET 0.000000 11.502998 -0.491200
						CHANNELS 3 Xrotation Yrotation Zrotation
						JOINT Neck_virtual
						{
							OFFSET 0.000000 0.000000 0.000000
							CHANNELS 3 Xrotation Yrotation Zrotation
							JOINT Neck
							{
								OFFSET 0.000000 18.430702 -3.123100
								CHANNELS 3 Xrotation Yrotation Zrotation
								JOINT Head
								{
									OFFSET 0.000000 9.051102 1.034000
									CHANNELS 3 Xrotation Yrotation Zrotation
									End Site
									{
										OFFSET 0 0 0
									}
								}
							}
						}
						JOINT LeftShoulder_virtual
						{
							OFFSET 0.000000 0.000000 0.000000
							CHANNELS 3 Xrotation Yrotation Zrotation
							JOINT LeftShoulder
							{
								OFFSET 6.197800 13.665199 -4.064700
								CHANNELS 3 Xrotation Yrotation Zrotation
								JOINT LeftArm
								{
									OFFSET 7.778100 -0.187103 -1.709300
									CHANNELS 3 Xrotation Yrotation Zrotation
									JOINT LeftForeArm
									{
										OFFSET 22.049376 0.000000 0.000000
										CHANNELS 3 Xrotation Yrotation Zrotation
										JOINT LeftHand
										{
											OFFSET 23.009392 0.000000 0.000000
											CHANNELS 3 Xrotation Yrotation Zrotation
											End Site
											{
												OFFSET 0 0 0
											}
										}
									}
								}
							}
						}
						JOINT RightShoulder_virtual
						{
							OFFSET 0.000000 0.000000 0.000000
							CHANNELS 3 Xrotation Yrotation Zrotation
							JOINT RightShoulder
							{
								OFFSET -6.197800 13.665199 -4.064700
								CHANNELS 3 Xrotation Yrotation Zrotation
								JOINT RightArm
								{
									OFFSET -7.778100 -0.187103 -1.709300
									CHANNELS 3 Xrotation Yrotation Zrotation
									JOINT RightForeArm
									{
										OFFSET -22.049376 0.000000 0.000000
										CHANNELS 3 Xrotation Yrotation Zrotation
										JOINT RightHand
										{
											OFFSET -23.009392 0.000000 0.000000
											CHANNELS 3 Xrotation Yrotation Zrotation
											End Site
											{
												OFFSET 0 0 0
											}
										}
									}
								}
							}
						}
					}
				}
			}
		}
	}
}
MOTION
Frames: 11
Frame Time: 0.03333333
0.055023 79.256866 -0.463533 0.000000 0.000000 0.000000 -24.512490 -2.419628 -1.570321 2.916333 19.879329 9.720285 34.257558 5.310081 -9.721693 -17.187099 29.705773 8.106926 0.000000 0.000000 0.000000 -24.512490 -2.419628 -1.570321 16.944975 -14.835407 -3.180304 30.466414 -10.258861 0.312260 -19.555416 -28.371212 1.554243 0.000000 0.000000 0.000000 -24.512490 -2.419628 -1.570321 0.000002 0.000000 0.000000 11.183444 -4.804639 -0.779839 3.545658 -2.400646 -0.151372 0.000000 0.000000 0.000000 3.557022 -2.388382 -0.108336 1.551790 0.634302 -1.308391 0.000000 0.000000 0.000000 3.557022 -2.388382 -0.108336 0.445071 -15.488178 -11.025452 -20.285387 3.054797 -36.773540 0.000040 -67.201938 0.000047 0.000000 0.000000 0.000000 3.557022 -2.388382 -0.108336 0.064830 14.691503 14.953770 -12.069989 -6.923742 61.446629 0.000003 39.415444 -0.000004 0.000000 0.000000 0.000000 
-0.293494 79.231415 -0.276665 0.000000 0.000000 0.000000 -24.534214 -3.368805 -2.050991 1.667310 20.182992 10.906400 36.233331 5.421560 -9.661806 -16.183853 29.782722 7.286762 0.000000 0.000000 0.000000 -24.534214 -3.368805 -2.050991 17.101144 -14.504434 -2.900531 30.462189 -10.085246 0.402885 -19.934901 -27.827555 1.208854 0.000000 0.000000 0.000000 -24.534214 -3.368805 -2.050991 0.000000 0.000000 0.000000 11.186918 -4.816703 -0.738502 3.545658 -2.400647 -0.151372 0.000000 0.000000 0.000000 3.557021 -2.388381 -0.108336 1.569039 0.632570 -1.281187 0.000000 0.000000 0.000000 3.557021 -2.388381 -0.108336 0.453287 -15.502117 -10.972479 -20.293313 3.094329 -36.833629 -0.000041 -67.199335 -0.000044 0.000000 0.000000 0.000000 3.557021 -2.388381 -0.108336 0.059575 14.649712 15.003832 -12.024883 -6.807493 61.377637 0.000013 39.437034 -0.000019 0.000000 0.000000 0.000000 
-0.620823 79.200562 -0.114815 0.000000 0.000000 0.000000 -24.563213 -4.320395 -2.543068 0.207367 20.431213 12.175762 38.415627 5.498640 -9.598943 -14.987330 29.834492 6.749330 0.000000 0.000000 0.000000 -24.563213 -4.320395 -2.543068 17.211418 -14.179545 -2.639975 30.500503 -9.973481 0.478709 -20.278123 -27.211118 0.921268 0.000000 0.000000 0.000000 -24.563213 -4.320395 -2.543068 0.000001 0.000000 0.000000 11.191096 -4.830971 -0.688884 3.545658 -2.400646 -0.151372 0.000000 0.000000 0.000000 3.557022 -2.388382 -0.108336 1.594335 0.627995 -1.252938 0.000000 0.000000 0.000000 3.557022 -2.388382 -0.108336 0.460829 -15.508021 -10.923489 -20.284315 3.109529 -36.878913 -0.000028 -67.192888 -0.000023 0.000000 0.000000 0.000000 3.557022 -2.388382 -0.108336 0.056285 14.633622 15.032358 -11.965738 -6.692806 61.317156 0.000001 39.454055 -0.000006 0.000000 0.000000 0.000000 
-0.985675 79.164879 0.070192 0.000000 0.000000 0.000000 -24.599580 -5.274539 -3.046112 -1.364696 20.584133 13.539861 40.673790 5.510478 -9.508352 -13.598442 29.872174 6.444977 0.000000 0.000000 0.000000 -24.599580 -5.274539 -3.046112 17.371345 -13.874353 -2.335711 30.511483 -9.906826 0.532373 -20.633880 -26.540215 0.651781 0.000000 0.000000 0.000000 -24.599580 -5.274539 -3.046112 0.000000 0.000000 0.000000 11.195943 -4.847258 -0.631672 3.545658 -2.400646 -0.151373 0.000000 0.000000 0.000000 3.557023 -2.388379 -0.108336 1.621906 0.619884 -1.221550 0.000000 0.000000 0.000000 3.557023 -2.388379 -0.108336 0.467432 -15.512268 -10.880577 -20.273859 3.119678 -36.916910 -0.000072 -67.186672 -0.000062 0.000000 0.000000 0.000000 3.557023 -2.388379 -0.108336 0.054409 14.630958 15.046420 -11.904868 -6.587380 61.267357 -0.000022 39.465711 0.000024 0.000000 0.000000 0.000000 
-1.325278 79.123161 0.241276 0.000000 0.000000 0.000000 -24.643744 -6.236807 -3.550845 -2.948736 20.640362 14.858194 42.808532 5.443043 -9.353626 -12.075777 29.895345 6.378596 0.000000 0.000000 0.000000 -24.643744 -6.236807 -3.550845 17.488703 -13.576790 -2.064900 30.568177 -9.861805 0.565163 -20.965551 -25.833818 0.437113 0.000000 0.000000 0.000000 -24.643744 -6.236807 -3.550845 0.000000 0.000000 0.000000 11.200534 -4.861770 -0.577359 3.545657 -2.400646 -0.151373 0.000000 0.000000 0.000000 3.557022 -2.388382 -0.108336 1.648778 0.606478 -1.184733 0.000000 0.000000 0.000000 3.557022 -2.388382 -0.108336 0.472353 -15.517853 -10.848853 -20.272645 3.135294 -36.949220 -0.000028 -67.183503 -0.000027 0.000000 0.000000 0.000000 3.557022 -2.388382 -0.108336 0.054214 14.638967 15.044543 -11.849491 -6.498836 61.233971 0.000000 39.468859 0.000002 0.000000 0.000000 0.000000 
-1.632769 79.081223 0.402420 0.000000 0.000000 0.000000 -24.696005 -7.207374 -4.055590 -4.413577 20.569738 16.029547 44.629399 5.267080 -9.101806 -10.484651 29.941295 6.400667 0.000000 0.000000 0.000000 -24.696005 -7.207374 -4.055590 17.577953 -13.297147 -1.837828 30.641438 -9.819439 0.583276 -21.261641 -25.096593 0.270557 0.000000 0.000000 0.000000 -24.696005 -7.207374 -4.055590 -0.000001 0.000000 0.000000 11.204742 -4.874513 -0.527905 3.545657 -2.400647 -0.151372 0.000000 0.000000 0.000000 3.557021 -2.388384 -0.108335 1.671279 0.586850 -1.141402 0.000000 0.000000 0.000000 3.557021 -2.388384 -0.108335 0.474820 -15.527627 -10.833580 -20.292113 3.167172 -36.977944 0.000015 -67.186051 0.000017 0.000000 0.000000 0.000000 3.557021 -2.388384 -0.108335 0.055757 14.652728 15.027639 -11.806455 -6.432296 61.220775 0.000000 39.461415 -0.000018 0.000000 0.000000 0.000000 
-1.900614 79.043594 0.557564 0.000000 0.000000 0.000000 -24.756685 -8.186347 -4.558738 -5.661516 20.321642 16.983684 46.107650 4.940281 -8.765231 -8.645903 28.141860 5.877282 0.000000 0.000000 0.000000 -24.756685 -8.186347 -4.558738 17.648505 -13.042495 -1.666574 30.711522 -9.761249 0.593857 -21.514024 -24.335107 0.146683 0.000000 0.000000 0.000000 -24.756685 -8.186347 -4.558738 -0.000001 0.000000 0.000000 11.208372 -4.885573 -0.485221 3.545658 -2.400647 -0.151373 0.000000 0.000000 0.000000 3.557021 -2.388380 -0.108336 1.686212 0.561393 -1.092498 0.000000 0.000000 0.000000 3.557021 -2.388380 -0.108336 0.474330 -15.543183 -10.838171 -20.339588 3.221960 -37.004394 0.000005 -67.196023 -0.000001 0.000000 0.000000 0.000000 3.557021 -2.388380 -0.108336 0.058779 14.667365 14.999020 -11.779103 -6.388085 61.227243 -0.000016 39.443444 0.000038 0.000000 0.000000 0.000000 
-2.122899 79.015404 0.708895 0.000000 0.000000 0.000000 -24.826235 -9.175418 -5.056313 -6.685837 19.862921 17.636810 47.440950 4.560267 -8.382391 -7.562267 24.649138 5.088608 0.000000 0.000000 0.000000 -24.826235 -9.175418 -5.056313 17.707749 -12.811455 -1.558788 30.757172 -9.673348 0.597616 -21.711952 -23.562344 0.060229 0.000000 0.000000 0.000000 -24.826235 -9.175418 -5.056313 -0.000001 -0.000001 -0.000000 11.211043 -4.893915 -0.453885 3.545658 -2.400645 -0.151372 0.000000 0.000000 0.000000 3.557021 -2.388381 -0.108335 1.691938 0.531873 -1.041106 0.000000 0.000000 0.000000 3.557021 -2.388381 -0.108335 0.470970 -15.564463 -10.861957 -20.414226 3.299221 -37.028607 0.000054 -67.213173 0.000053 0.000000 0.000000 0.000000 3.557021 -2.388381 -0.108335 0.062721 14.680040 14.963809 -11.765227 -6.360955 61.247788 0.000006 39.418005 -0.000002 0.000000 0.000000 0.000000 
-2.295439 78.998978 0.857372 0.000000 0.000000 0.000000 -24.905119 -10.175211 -5.547014 -7.478186 19.166006 17.955051 48.699590 4.210269 -7.974782 -7.730324 20.608098 4.176866 0.000000 0.000000 0.000000 -24.905119 -10.175211 -5.547014 17.756004 -12.594924 -1.511876 30.770398 -9.547727 0.586392 -21.849140 -22.798195 0.011303 0.000000 0.000000 0.000000 -24.905119 -10.175211 -5.547014 0.000003 0.000000 0.000000 11.212619 -4.898945 -0.435668 3.545659 -2.400645 -0.151372 0.000000 0.000000 0.000000 3.557021 -2.388380 -0.108336 1.688885 0.501063 -0.991730 0.000000 0.000000 0.000000 3.557021 -2.388380 -0.108336 0.465639 -15.590291 -10.898828 -20.505427 3.391259 -37.049439 0.000010 -67.235665 0.000015 0.000000 0.000000 0.000000 3.557021 -2.388380 -0.108336 0.066779 14.690999 14.928169 -11.757136 -6.341267 61.272384 0.000014 39.391139 -0.000026 0.000000 0.000000 0.000000 
-2.416169 78.993187 1.003288 0.000000 0.000000 0.000000 -24.993655 -11.185024 -6.032510 -7.975693 18.226315 17.948675 49.543300 3.871091 -7.519249 -8.304096 16.563451 2.855805 0.000000 0.000000 0.000000 -24.993655 -11.185024 -6.032510 17.787146 -12.380859 -1.515291 30.757640 -9.382998 0.546691 -21.926231 -22.062894 0.003371 0.000000 0.000000 0.000000 -24.993655 -11.185024 -6.032510 -0.000001 0.000000 0.000000 11.213171 -4.900951 -0.429157 3.545657 -2.400647 -0.151372 0.000000 0.000000 0.000000 3.557023 -2.388380 -0.108335 1.679284 0.471989 -0.949094 0.000000 0.000000 0.000000 3.557023 -2.388380 -0.108335 0.460015 -15.619196 -10.937568 -20.594991 3.485662 -37.065729 0.000042 -67.260240 0.000051 0.000000 0.000000 0.000000 3.557023 -2.388380 -0.108335 0.070059 14.702774 14.898384 -11.744071 -6.317463 61.288940 -0.000023 39.370300 0.000014 0.000000 0.000000 0.000000 
-2.485513 78.995338 1.146811 0.000000 0.000000 0.000000 -25.092172 -12.203549 -6.515942 -8.212181 17.069205 17.648999 49.939164 3.565900 -7.008103 -9.115985 13.014294 1.219800 0.000000 0.000000 0.000000 -25.092172 -12.203549 -6.515942 17.793742 -12.160921 -1.561164 30.732242 -9.181948 0.474583 -21.950008 -21.365107 0.036635 0.000000 0.000000 0.000000 -25.092172 -12.203549 -6.515942 -0.000001 0.000001 0.000000 11.212982 -4.900378 -0.431397 3.545658 -2.400646 -0.151372 0.000000 0.000000 0.000000 3.557022 -2.388379 -0.108336 1.666315 0.447327 -0.916925 0.000000 0.000000 0.000000 3.557022 -2.388379 -0.108336 0.456229 -15.649949 -10.964340 -20.661925 3.569062 -37.076958 0.000020 -67.283510 0.000010 0.000000 0.000000 0.000000 3.557022 -2.388379 -0.108336 0.071798 14.718209 14.879833 -11.715991 -6.279151 61.286522 -0.000004 39.362233 -0.000012 0.000000 0.000000 0.000000 
